<?xml version="1.0" encoding="utf-8"?>
<!-- Generator: Adobe Illustrator 24.1.3, SVG Export Plug-In . SVG Version: 6.00 Build 0)  -->
<svg version="1.1" id="Layer_1" xmlns="http://www.w3.org/2000/svg" xmlns:xlink="http://www.w3.org/1999/xlink" x="0px" y="0px"
	 viewBox="0 0 100 21" style="enable-background:new 0 0 100 21;" xml:space="preserve">
<g>
	<path d="M0,8.00238h1.16577l0.34261-2.1457h2.18823c0.02806,1.42542,0.02757,7.83399,0.00056,9.22356l-1.55629,0.16183v0.78313
		h3.72821V6.76844h3.33259V4.96776H0.09703L0,8.00238z"/>
	<path d="M18.35806,10.7653c0.929-0.42481,1.51378-1.36414,1.48493-2.38526c0.06382-1.82995-1.36791-3.36514-3.19786-3.42896
		c-0.15592-0.00544-0.31204,0.00014-0.46718,0.01668h-5.5292v0.78304l1.39609,0.15225
		c0.02756,1.41008,0.02767,7.79733,0.00017,9.18715l-1.39626,0.15185v0.78314h5.02145v-0.78313l-1.42053-0.1546
		c-0.02645-1.35613-0.03383-2.72923-0.03391-4.16184h0.71682c0.19913-0.00054,0.39795,0.01564,0.59438,0.04839v0.89672h0.60338
		c0.80239-0.00171,1.4605,0.63531,1.48492,1.43733l0.26878,2.71709h2.06949l-0.26878-2.95375
		C19.63996,12.13384,19.14606,11.27531,18.35806,10.7653z M16.08342,10.07006h-1.86797
		c0.00008-1.49987,0.00274-2.87052,0.03047-4.23716h1.07614c0.07308,0,0.13545,0.00934,0.2049,0.01247v0.87605h0.55645
		c0.8578-0.09824,1.63282,0.5175,1.73105,1.3753c0.01077,0.09403,0.01298,0.18884,0.0066,0.28326
		c0.06172,0.87375-0.59656,1.63211-1.47032,1.69383c-0.08906,0.00629-0.17849,0.00505-0.26734-0.00371V10.07006z"/>
	<path d="M25.83211,4.96811l-3.46043,10.07166l-1.37135,0.20249v0.78314h3.71109v-0.78314l-1.45903-0.21366l0.84149-2.52888h2.32794
		v0.89849h2.12512l0.96649,2.62721h2.16494l-4.26551-11.0573L25.83211,4.96811z M26.42173,11.62903h-2.03824l1.67873-5.04488
		l1.85244,5.04488H26.42173z"/>
	<polygon points="40.60302,12.77131 35.79253,4.96846 32.65084,4.96846 32.65084,5.75686 33.81673,5.8811 34.01384,6.15226 
		34.01384,15.04216 32.59709,15.24285 32.59709,16.02528 36.79954,16.02528 36.79954,15.24285 34.97067,15.01707 34.97067,7.46628 
		40.44534,16.02528 42.68871,16.02528 42.68871,4.96846 40.60302,4.96846 	"/>
	<path d="M48.83195,9.26936c-1.19344-0.45732-1.65848-0.95772-1.65848-1.8817c0.0183-0.90457,0.75373-1.63,1.65848-1.6359v0.89698
		c0.98238-0.08925,1.85606,0.62275,1.96691,1.60292h1.98975c-0.09373-2.05189-1.65042-3.38584-3.95666-3.40762
		c-2.13826,0-3.57747,1.25886-3.57747,3.06285c0,1.72657,1.0976,2.59949,2.98301,3.30956
		c1.81056,0.68192,2.67199,0.72051,2.67199,1.6636c0,0.97945-0.81407,1.45342-2.07751,1.45342v0.90222
		c-0.12772,0.01501-0.25615,0.0233-0.38474,0.02483c-0.58458,0.00811-1.16343-0.11604-1.69328-0.36315l-0.32887-1.94474h-1.28121
		l-0.10034,2.34287c1.15896,0.63115,2.47084,0.92691,3.7885,0.85411c2.43285,0,4.19396-1.24761,4.19396-3.30103
		C53.02591,10.60388,50.78769,10.01875,48.83195,9.26936z"/>
	<path d="M54.57418,5.75089l1.39618,0.15226c0.02747,1.41015,0.02756,7.79733,0.00014,9.18714l-1.39632,0.15186v0.78304h5.14432
		v-0.78304l-1.51908-0.16521c-0.02702-1.39134-0.034-2.96991-0.034-4.45876h1.31191v0.92459h2.895V9.74138H58.1658
		c0.00008-1.3698,0.00749-2.55294,0.03432-3.8847h1.27721v0.91167h3.93746V4.96776h-8.84061V5.75089z"/>
	<path d="M69.65911,4.84091L69.6514,4.84163v0.0002c-2.901,0.02678-5.23101,2.40022-5.20423,5.30122
		c0.00108,0.11748,0.00611,0.2349,0.01508,0.35205c0,3.73686,2.5235,5.65026,5.18916,5.65459v0.00007l0.00771,0.00072
		c3.014,0.06694,5.51158-2.32212,5.57851-5.33612c0.00236-0.106,0.00163-0.21204-0.0022-0.318
		c0.10925-3.01293-2.24466-5.54396-5.25759-5.65321C69.87164,4.83931,69.76535,4.83856,69.65911,4.84091z M69.6514,14.33352v0.93843
		c-2.00021-0.00724-2.82752-2.21564-2.82752-4.77694c0-2.55471,0.82734-4.77501,2.82752-4.78224v0.92959
		c1.97518,0.04616,3.53896,1.68478,3.49281,3.65997c-0.00152,0.06473-0.00479,0.12941-0.00981,0.19396
		c0.15163,1.96214-1.31609,3.67569-3.27822,3.82732C69.78802,14.32888,69.71973,14.33219,69.6514,14.33352z"/>
	<path d="M83.98808,10.7653c0.92899-0.42482,1.51376-1.36414,1.48492-2.38526c0.06381-1.82995-1.36791-3.36514-3.19786-3.42896
		c-0.15592-0.00544-0.31203,0.00014-0.46716,0.01668h-5.52918v0.78304l1.39606,0.15225
		c0.02757,1.41008,0.02767,7.79733,0.00017,9.18715l-1.39623,0.15185v0.78314h5.02146v-0.78313l-1.42052-0.1546
		c-0.02644-1.35613-0.03385-2.72923-0.03394-4.16184h0.71681c0.19913-0.00054,0.39796,0.01564,0.59439,0.04839v0.89672h0.60339
		c0.80238-0.00168,1.46048,0.63532,1.48493,1.43733l0.26878,2.71709h2.0695l-0.26878-2.95375
		C85.27001,12.13383,84.77609,11.2753,83.98808,10.7653z M81.71344,10.07006h-1.86796
		c0.00008-1.49987,0.00273-2.87052,0.03046-4.23716h1.07615c0.07306,0,0.13545,0.00934,0.2049,0.01247v0.87605h0.55644
		c0.85779-0.09825,1.63281,0.51747,1.73106,1.37526c0.01077,0.09404,0.01298,0.18886,0.0066,0.2833
		c0.06172,0.87376-0.59657,1.63211-1.47034,1.69383c-0.08906,0.00629-0.17848,0.00505-0.26733-0.00371V10.07006z"/>
	<polygon points="97.59895,4.96726 94.32227,12.95766 91.1997,4.96726 89.80087,4.96726 89.78296,4.96726 89.03157,4.96726 
		88.97185,4.96726 87.49059,4.96726 87.49059,5.75089 88.97185,5.93007 88.97185,15.03141 87.41772,15.24165 87.41772,16.02528 
		88.97185,16.02528 89.93825,16.02528 91.31199,16.02528 91.31199,15.24165 89.93825,15.0326 89.85463,7.07207 93.35826,16.02528 
		95.0402,16.02528 98.04092,8.69547 98.04092,16.02528 100,16.02528 100,4.96726 	"/>
</g>
</svg>
